 <svg  version="1.0" xmlns="http://www.w3.org/2000/svg"  width="300.000000pt" height="207.000000pt" viewBox="0 0 300.000000 207.000000"  preserveAspectRatio="xMidYMid meet">  <g transform="translate(0.000000,207.000000) scale(0.100000,-0.100000)" fill="#e9872b" stroke="none"> <path d="M922 1670 c-97 -70 -143 -173 -150 -338 -2 -62 0 -118 5 -123 5 -5 24 -4 46 2 37 10 38 11 30 47 -10 49 -8 215 3 235 9 16 8 17 192 -95 63 -38 31 -9 -73 67 l-105 76 24 48 c14 26 41 62 61 79 45 41 21 42 -33 2z"/> <path d="M1110 1566 c0 -2 48 -39 108 -82 59 -43 109 -79 112 -82 11 -9 -101 -100 -162 -130 -36 -18 -117 -44 -179 -58 -322 -74 -398 -104 -490 -194 -71 -70 -100 -126 -105 -204 -2 -34 -1 -53 2 -44 4 14 24 5 120 -52 63 -38 114 -66 113 -62 0 4 -49 42 -110 85 l-109 78 19 37 c20 39 84 104 139 141 l32 22 78 -41 c64 -34 71 -37 43 -13 -19 15 -46 38 -60 49 l-25 22 64 20 c36 11 120 32 188 47 232 50 320 91 411 191 53 57 91 142 90 197 0 31 0 31 -18 -13 -10 -25 -22 -44 -28 -43 -6 1 -58 30 -115 64 -127 76 -118 71 -118 65z m-105 -395 c-6 -5 -57 -19 -115 -30 -58 -12 -114 -24 -125 -27 -16 -4 -17 -3 -5 5 12 8 90 27 215 54 35 8 40 8 30 -2z"/> <path d="M1000 1060 c0 -28 3 -30 35 -30 32 0 35 2 35 30 0 28 -3 30 -35 30 -32 0 -35 -2 -35 -30z"/> <path d="M1505 1076 c-62 -30 -85 -63 -85 -120 0 -51 16 -84 51 -105 l31 -19 -31 -18 c-38 -22 -39 -46 -5 -71 l26 -19 -41 -29 c-47 -32 -59 -61 -39 -101 47 -99 214 -98 295 1 36 43 44 82 27 124 -17 40 -43 52 -130 58 -72 6 -103 20 -89 43 3 5 16 10 28 10 40 1 106 38 127 72 15 23 20 46 18 75 -3 38 -1 42 22 45 14 2 30 13 37 27 14 30 7 47 -13 30 -9 -7 -31 -9 -62 -5 -111 16 -138 16 -167 2z m90 -40 c45 -46 43 -139 -5 -163 -75 -37 -146 89 -89 161 26 33 62 34 94 2z m64 -337 c12 -8 24 -24 28 -37 22 -90 -132 -138 -199 -62 -36 39 -35 54 3 92 28 29 34 30 88 25 32 -2 68 -11 80 -18z"/> <path d="M839 1058 l-35 -9 13 -72 c13 -77 17 -197 7 -235 -6 -20 -9 -21 -23 -9 -9 7 -63 42 -121 77 -58 35 -115 70 -127 78 -13 8 -23 12 -23 9 0 -3 62 -49 138 -102 75 -54 139 -99 141 -101 7 -6 -32 -85 -62 -126 -15 -21 -39 -44 -52 -50 -35 -16 -31 -29 5 -16 47 16 123 91 153 150 39 77 60 187 52 273 -9 99 -17 145 -24 144 -3 -1 -22 -5 -42 -11z"/> <path d="M1835 993 c-59 -15 -92 -72 -82 -145 7 -52 37 -83 94 -98 77 -19 153 9 153 55 0 25 -1 25 -30 10 -41 -21 -113 -20 -133 3 -10 10 -17 23 -17 28 0 5 41 8 95 6 l95 -3 0 31 c0 86 -79 137 -175 113z m97 -60 c36 -32 23 -43 -52 -43 -62 0 -69 2 -63 18 15 42 80 57 115 25z"/> <path d="M2412 989 c-72 -21 -98 -139 -44 -199 30 -34 95 -54 140 -44 54 13 82 33 82 60 0 24 -1 24 -30 9 -56 -29 -143 -15 -152 24 -2 10 17 13 95 11 l97 -1 0 26 c0 93 -84 144 -188 114z m112 -61 c9 -12 16 -26 16 -30 0 -5 -31 -8 -70 -8 -38 0 -70 3 -70 8 0 4 7 18 16 30 11 16 25 22 54 22 29 0 43 -6 54 -22z"/> <path d="M1005 870 l0 -120 33 0 32 0 0 120 0 120 -32 0 -33 0 0 -120z"/> <path d="M1120 870 l0 -120 35 0 35 0 0 100 0 100 45 0 c57 0 65 -15 65 -119 l0 -81 33 0 32 0 -2 83 c-1 45 -3 90 -3 100 0 9 -9 26 -20 37 -17 17 -33 20 -120 20 l-100 0 0 -120z"/> <path d="M2055 870 l0 -120 35 0 35 0 -3 100 -3 100 43 0 c24 0 49 -5 56 -12 8 -8 12 -45 12 -100 l0 -88 35 0 35 0 0 95 c0 88 -2 98 -25 120 -22 23 -31 25 -122 25 l-98 0 0 -120z"/> <path d="M1898 694 c-5 -4 -8 -18 -8 -31 0 -19 -5 -23 -30 -23 -20 0 -30 5 -30 15 0 8 9 15 20 15 11 0 20 5 20 11 0 7 -10 9 -27 4 -16 -4 -29 -7 -30 -8 -2 -3 -6 -131 -3 -142 3 -17 19 29 19 58 1 15 6 27 12 27 8 0 10 -15 7 -45 -5 -44 -5 -45 20 -42 13 2 31 12 38 22 14 19 15 18 30 -3 8 -12 20 -20 25 -16 5 3 0 17 -11 31 -11 14 -20 36 -20 49 0 13 -4 24 -10 24 -5 0 -10 -11 -10 -24 0 -14 -11 -38 -25 -53 l-24 -28 -1 44 c0 35 3 42 16 37 11 -4 18 1 21 14 7 27 43 27 43 -1 0 -11 5 -17 10 -14 6 3 10 17 10 31 0 19 -5 24 -24 24 -14 0 -26 7 -28 16 -2 9 -6 12 -10 8z"/> <path d="M2202 665 c-15 -33 -15 -35 5 -35 15 0 15 -1 0 -18 -10 -10 -17 -22 -17 -25 0 -11 48 -8 55 3 3 6 -1 10 -11 10 -13 0 -14 3 -4 15 22 26 30 17 30 -34 l0 -49 43 5 c46 6 75 23 39 23 -12 0 -22 5 -22 10 0 6 7 10 15 10 8 0 15 5 15 10 0 6 -7 10 -15 10 -8 0 -15 5 -15 10 0 6 7 10 15 10 8 0 15 5 15 10 0 6 -3 9 -7 8 -5 -2 -8 2 -8 7 0 6 3 9 8 8 12 -5 8 7 -7 23 -18 17 -36 18 -36 2 0 -10 -3 -9 -9 1 -10 16 -31 6 -31 -14 0 -9 -6 -12 -15 -9 -8 4 -15 1 -15 -5 0 -6 -5 -11 -10 -11 -6 0 -3 11 6 25 14 21 14 25 2 25 -8 0 -20 -11 -26 -25z"/> <path d="M2458 682 l-38 -3 0 -59 c0 -32 -3 -67 -6 -77 -4 -14 -1 -13 15 6 13 14 21 37 21 57 0 19 5 34 10 34 6 0 10 -7 10 -15 0 -23 62 -20 82 4 20 24 11 28 -54 25 -27 -1 -48 2 -48 7 0 5 30 9 67 9 36 0 64 3 60 6 -7 8 -69 11 -119 6z"/> <path d="M2060 615 c0 -18 5 -25 20 -25 15 0 20 7 20 25 0 18 -5 25 -20 25 -15 0 -20 -7 -20 -25z"/> <path d="M2493 593 c20 -2 35 -8 32 -14 -4 -5 -18 -6 -32 -3 -18 5 -24 4 -19 -5 4 -6 0 -14 -8 -17 -29 -11 -16 -23 15 -14 18 5 40 5 55 -1 32 -11 34 -11 34 1 0 6 -7 10 -15 10 -17 0 -20 16 -5 25 24 15 6 25 -42 23 -44 -1 -47 -2 -15 -5z"/> <path d="M2193 557 c-8 -13 0 -16 30 -10 15 3 27 9 27 14 0 11 -50 8 -57 -4z"/> </g> </svg> 