<?xml version="1.0" standalone="no"?>
<!DOCTYPE svg PUBLIC "-//W3C//DTD SVG 20010904//EN"
 "http://www.w3.org/TR/2001/REC-SVG-20010904/DTD/svg10.dtd">
<svg version="1.0" xmlns="http://www.w3.org/2000/svg"
 width="300.000000pt" height="76.000000pt" viewBox="0 0 300.000000 76.000000"
 preserveAspectRatio="xMidYMid meet">
<metadata>
Created by potrace 1.10, written by Peter Selinger 2001-2011
</metadata>
<g transform="translate(0.000000,76.000000) scale(0.100000,-0.100000)"
fill="#fdfcfc" stroke="none">
<path d="M841 582 c-65 -33 -70 -47 -73 -245 l-3 -177 42 0 42 0 3 176 c3 198
6 204 79 204 63 0 69 -18 69 -212 l0 -168 45 0 45 0 0 165 c0 199 -8 226 -72
255 -54 24 -132 26 -177 2z"/>
<path d="M1430 591 c-128 -39 -193 -157 -156 -283 45 -154 254 -212 375 -104
l24 21 -5 -32 c-4 -32 -3 -33 29 -33 l33 0 0 105 0 105 -45 0 -45 0 0 -43 c0
-36 -6 -49 -35 -77 -30 -29 -43 -34 -92 -38 -48 -3 -64 0 -93 20 -98 66 -91
237 13 289 74 38 176 12 200 -52 10 -26 16 -29 55 -29 36 0 43 3 38 16 -3 9
-6 20 -6 25 0 5 -16 27 -36 49 -53 59 -169 86 -254 61z m254 -343 c-9 -14 -23
2 -17 18 4 12 8 13 14 3 4 -7 5 -17 3 -21z"/>
<path d="M2264 590 c-16 -5 -41 -21 -55 -36 -23 -25 -24 -30 -27 -210 l-3
-184 43 0 43 0 0 169 c0 152 2 171 19 190 13 14 31 21 56 21 25 0 43 -7 56
-21 17 -19 19 -38 19 -190 l0 -169 43 0 42 0 0 173 c0 184 -5 205 -51 240 -31
22 -136 32 -185 17z"/>
<path d="M121 573 c29 -35 133 -158 150 -178 19 -22 26 -12 -119 -184 l-44
-51 50 0 c50 0 50 0 113 75 35 41 66 75 69 74 3 0 32 -34 65 -75 l60 -74 53 0
53 0 -92 105 c-60 69 -88 109 -83 117 4 7 45 57 91 111 l84 97 -53 -1 -53 0
-60 -74 c-33 -41 -63 -74 -67 -74 -3 -1 -35 33 -69 74 -63 75 -64 75 -113 75
-46 0 -48 -1 -35 -17z m244 -198 c0 -39 -2 -42 -26 -41 -23 1 -26 5 -26 41 0
36 3 40 26 41 24 1 26 -2 26 -41z"/>
<path d="M615 375 l0 -215 43 0 42 0 0 215 0 215 -42 0 -43 0 0 -215z"/>
<path d="M1800 375 l0 -215 165 0 165 0 0 30 0 30 -122 0 -123 0 3 66 4 66
106 -3 107 -4 3 28 3 27 -110 0 -111 0 0 65 0 65 120 0 120 0 0 30 0 30 -165
0 -165 0 0 -215z m70 10 c10 -11 9 -18 -3 -30 -22 -22 -27 -19 -27 15 0 33 11
38 30 15z"/>
<path d="M2550 375 l0 -215 165 0 165 0 0 30 0 30 -122 0 -123 0 1 62 2 63
108 0 107 0 1 28 2 27 -111 0 -110 0 0 65 0 65 123 0 122 0 0 30 0 30 -165 0
-165 0 0 -215z m63 -22 c-9 -13 -17 -23 -19 -23 -2 0 -4 21 -4 46 l0 46 19
-23 c17 -21 17 -25 4 -46z"/>
<path d="M1510 340 c0 -16 5 -30 10 -30 6 0 10 14 10 30 0 17 -4 30 -10 30 -5
0 -10 -13 -10 -30z"/>
<path d="M1540 340 c0 -16 5 -30 10 -30 6 0 10 3 11 8 0 4 2 17 3 30 2 13 -3
22 -11 22 -8 0 -13 -12 -13 -30z"/>
<path d="M1585 355 c-3 -8 -7 -22 -10 -30 -3 -11 4 -15 25 -15 27 0 30 3 30
30 0 23 -4 30 -20 30 -11 0 -23 -7 -25 -15z"/>
</g>
</svg>
