<?xml version="1.0"?>
<svg width="600" height="500" xmlns="http://www.w3.org/2000/svg" xmlns:svg="http://www.w3.org/2000/svg" preserveAspectRatio="xMidYMid meet">
 <g class="layer">
  <title>Layer 1</title>
  <g fill="#000000" id="svg_1" transform="translate(0 600) scale(0.1 -0.1)">
   <path d="m1184,5415c-163,-81 -294,-223 -389,-420c-107,-221 -140,-400 -131,-705c3,-113 9,-221 12,-241l6,-36l96,24c54,12 105,23 116,23c17,0 18,5 12,48c-47,336 -47,513 0,730l16,72l32,-19c29,-18 529,-307 551,-319c23,-12 -13,16 -270,208c-148,111 -274,205 -278,210c-11,10 34,116 84,201c46,77 132,175 202,231c27,21 45,38 40,38c-5,0 -49,-20 -99,-45z" fill="#ffaa56" id="svg_2"/>
   <path d="m1736,5009c3,-5 26,-23 52,-41c26,-17 63,-44 82,-60c19,-16 40,-32 45,-36c6,-4 30,-23 55,-42c24,-19 40,-28 35,-20c-5,8 6,0 24,-18c45,-45 147,-113 156,-104c3,4 5,2 3,-5c-1,-6 1,-11 5,-11c5,-1 18,-13 29,-27c12,-15 27,-24 35,-21c8,3 11,2 8,-3c-3,-6 3,-14 12,-20c20,-11 27,0 -82,-120c-22,-25 -31,-38 -20,-30c18,13 19,12 8,-2c-7,-9 -10,-18 -7,-22c3,-3 -2,-3 -13,-1c-12,3 -40,-12 -81,-45c-35,-28 -83,-63 -108,-77c-39,-23 -43,-28 -32,-43c11,-14 11,-14 -3,-4c-13,11 -26,7 -75,-19c-32,-18 -64,-39 -71,-47c-6,-9 -24,-17 -40,-17c-15,-1 -73,-18 -128,-38c-121,-45 -256,-81 -520,-136c-110,-23 -252,-55 -315,-71c-63,-16 -128,-32 -145,-35c-16,-3 -36,-11 -43,-16c-7,-6 -28,-12 -48,-13c-20,-1 -39,-6 -42,-11c-4,-5 -11,-9 -17,-9c-19,0 -126,-38 -131,-46c-3,-5 -12,-9 -20,-9c-61,0 -423,-226 -407,-253c3,-7 3,-9 -2,-5c-11,10 -76,-42 -68,-55c3,-5 2,-7 -4,-4c-10,6 -43,-26 -43,-43c0,-5 -9,-14 -21,-20c-11,-7 -18,-18 -15,-25c2,-7 -5,-21 -17,-32c-22,-18 -22,-18 -7,2c10,13 8,13 -5,-2c-74,-84 -150,-231 -169,-328c-27,-139 -32,-208 -15,-250c6,-16 8,-14 8,13c1,17 5,32 9,32c4,0 28,-13 53,-28c86,-54 234,-137 242,-134c4,1 7,-2 7,-6c0,-14 79,-54 92,-46c7,4 8,3 4,-4c-4,-7 9,-19 34,-32c22,-11 40,-17 40,-13c0,4 6,0 13,-9c6,-8 30,-25 52,-37c39,-22 39,-22 15,-1c-76,65 -106,83 -121,74c-7,-4 -9,-3 -6,3c8,13 -15,34 -141,128c-90,66 -106,74 -120,63c-15,-11 -15,-11 -4,3c11,15 9,20 -13,37c-15,12 -33,18 -42,15c-10,-4 -14,-2 -9,5c3,6 -11,24 -33,42l-39,31l29,60c24,49 27,64 19,82c-10,19 -9,20 3,5c12,-15 14,-15 28,5c8,12 16,27 19,34c12,28 151,174 213,223c45,35 66,59 62,68c-4,12 -3,13 10,2c8,-7 15,-8 15,-2c0,5 9,12 21,15c12,3 18,10 14,16c-3,6 0,9 8,5c8,-3 21,1 29,8c43,39 119,61 133,37c4,-6 14,-8 23,-4c9,3 13,3 9,-1c-4,-5 7,-15 25,-25c18,-9 88,-46 156,-82c67,-35 122,-64 122,-62c0,6 -264,210 -270,208c-4,-1 -7,5 -7,14c0,9 17,22 39,31c21,8 38,19 38,24c0,5 4,7 8,4c4,-2 65,13 136,35c70,21 132,39 138,39c6,0 20,8 31,18c11,9 17,11 12,3c-5,-10 -3,-12 11,-7c11,3 96,21 189,41c94,20 194,41 223,47c36,8 49,14 40,20c-8,6 -5,7 10,3c27,-8 313,62 324,79c4,6 8,8 8,4c0,-7 118,29 135,42c6,4 23,10 39,14c24,6 27,9 15,17c-10,8 -9,9 8,4c14,-4 46,6 92,30c39,19 71,38 71,41c0,3 -6,4 -13,1c-8,-3 -14,1 -14,8c0,11 5,11 19,4c21,-11 26,-9 145,73c70,47 223,185 223,200c0,5 15,22 33,39c17,17 25,27 17,23c-8,-4 -1,7 16,24c40,42 75,108 68,130c-4,13 -3,14 4,4c7,-10 14,-3 29,30c40,85 64,182 69,278l5,95l-24,-70c-13,-38 -38,-98 -54,-132c-28,-57 -31,-60 -44,-42c-13,18 -46,35 -61,31c-5,-1 -8,2 -8,8c0,15 -128,82 -141,74c-7,-4 -9,-3 -5,4c7,12 -99,76 -112,68c-5,-3 -18,1 -28,10c-18,14 -17,14 6,4c24,-11 24,-10 5,5c-11,8 -25,13 -33,10c-7,-2 -10,-1 -7,5c7,12 -32,33 -47,24c-6,-4 -9,-3 -6,2c3,5 -30,30 -73,55c-43,26 -76,43 -73,38zm309,-198c3,-5 2,-12 -3,-15c-5,-3 -9,1 -9,9c0,17 3,19 12,6zm220,-148c-2,-10 -4,-19 -4,-21c-1,-2 -6,0 -11,3c-8,5 -7,11 1,21c15,18 18,18 14,-3zm55,-7c0,-3 -4,-8 -10,-11c-5,-3 -10,-1 -10,4c0,6 5,11 10,11c6,0 10,-2 10,-4zm-67,-159c3,-7 -3,-13 -14,-13c-13,0 -15,3 -7,13c6,7 12,13 13,13c2,0 5,-6 8,-13zm-119,-96c3,-5 -7,-16 -22,-25l-27,-17l22,19c12,11 19,22 16,26c-4,3 -4,6 0,6c3,0 8,-4 11,-9zm46,3c0,-8 -19,-13 -24,-6c-3,5 1,9 9,9c8,0 15,-2 15,-3zm-105,-63c-3,-6 -11,-11 -16,-11c-5,0 -4,6 3,14c14,16 24,13 13,-3zm-35,-25c0,-2 -7,-7 -16,-10c-8,-3 -12,-2 -9,4c6,10 25,14 25,6zm111,-59c-10,-9 -11,-8 -5,6c3,10 9,15 12,12c3,-3 0,-11 -7,-18zm-81,-61c0,-2 -8,-10 -17,-17c-16,-13 -17,-12 -4,4c13,16 21,21 21,13zm-300,-50c0,-2 -7,-7 -16,-10c-8,-3 -12,-2 -9,4c6,10 25,14 25,6zm-440,-110c0,-2 -7,-7 -16,-10c-8,-3 -12,-2 -9,4c6,10 25,14 25,6zm-411,-95c11,-7 9,-10 -8,-16c-13,-4 -25,-4 -28,-1c-4,3 2,6 13,6c16,0 17,2 4,10c-8,5 -10,10 -5,10c6,0 16,-4 24,-9zm-83,-33c4,-6 3,-8 -4,-4c-6,3 -13,2 -17,-4c-3,-5 -14,-10 -23,-10c-12,1 -10,5 8,15c31,18 27,17 36,3zm-546,-162c0,-2 -7,-7 -16,-10c-8,-3 -12,-2 -9,4c6,10 25,14 25,6zm410,-46c0,-5 -10,-10 -22,-9c-22,0 -22,1 -3,9c11,5 21,9 23,9c1,1 2,-3 2,-9zm-514,-17c-3,-20 -22,-28 -31,-14c-4,7 0,8 10,5c9,-4 15,-3 14,2c-2,13 0,24 5,24c2,0 3,-8 2,-17zm-245,-180c13,-16 12,-17 -3,-4c-10,7 -18,15 -18,17c0,8 8,3 21,-13zm376,-65c-3,-8 -6,-5 -6,6c-1,11 2,17 5,13c3,-3 4,-12 1,-19zm88,-46c-3,-3 -11,0 -18,7c-9,10 -8,11 6,5c10,-3 15,-9 12,-12zm30,-12c3,-5 -1,-10 -10,-10c-9,0 -13,5 -10,10c3,6 8,10 10,10c2,0 7,-4 10,-10zm-737,-175c-3,-3 -9,2 -12,12c-6,14 -5,15 5,6c7,-7 10,-15 7,-18zm-67,-382c13,-17 13,-17 -6,-3c-11,8 -22,16 -24,17c-2,2 0,3 6,3c6,0 17,-8 24,-17zm172,-70c3,-5 -8,-8 -25,-9c-20,-1 -25,2 -16,7c16,11 35,11 41,2zm-9,-21c3,-5 -1,-9 -9,-9c-8,0 -12,4 -9,9c3,4 7,8 9,8c2,0 6,-4 9,-8z" fill="#ffaa56" id="svg_3"/>
   <path d="m1770,4190c-9,-6 -10,-10 -3,-10c6,0 15,5 18,10c8,12 4,12 -15,0z" fill="#ffaa56" id="svg_4"/>
   <path d="m1342,3603l3,-88l93,-3l92,-3l0,91l0,90l-95,0l-96,0l3,-87z" fill="#ffaa56" id="svg_5"/>
   <path d="m2850,3671c-102,-34 -151,-60 -203,-110c-65,-61 -96,-121 -110,-212c-25,-162 47,-315 178,-379l48,-23l-25,-21c-14,-12 -53,-38 -88,-59l-62,-39l5,-40c6,-47 50,-99 110,-129c20,-11 37,-21 37,-23c0,-2 -42,-35 -92,-74c-130,-99 -147,-119 -154,-179c-12,-99 41,-212 128,-270c129,-88 330,-102 498,-36c187,74 321,215 350,368c26,139 -24,243 -143,295c-45,20 -141,35 -374,58c-107,11 -143,29 -143,70c0,50 24,66 115,77c156,19 297,110 358,230c35,70 44,197 21,289c-5,22 -3,24 55,28c41,3 67,10 82,24c22,19 69,109 69,132c0,24 -29,24 -62,0c-49,-35 -162,-32 -283,6c-116,37 -235,44 -315,17zm124,-83c114,-34 184,-199 156,-366c-22,-131 -82,-188 -190,-180c-101,7 -169,70 -204,188c-20,68 -21,183 -1,242c16,47 65,104 100,119c30,12 93,11 139,-3zm63,-983c182,-13 273,-83 273,-207c-1,-96 -49,-166 -145,-210c-44,-20 -65,-23 -170,-22c-100,0 -128,3 -167,21c-195,89 -213,285 -35,398c36,23 82,33 132,29c22,-2 73,-6 112,-9z" fill="#ffaa56" id="svg_6"/>
   <path d="m868,3597c-53,-12 -99,-25 -103,-28c-3,-4 4,-58 15,-120c34,-189 50,-346 50,-490c0,-128 -15,-290 -29,-316c-4,-7 -59,20 -161,81c-203,121 -548,326 -580,343l-25,15l25,-19c122,-91 318,-234 548,-402l170,-124l-25,-71c-73,-205 -180,-351 -343,-469l-25,-18l30,6c17,3 68,25 115,48c70,34 102,59 186,142c107,106 165,193 225,335c118,282 138,564 73,1003c-19,123 -5,115 -146,84z" fill="#ffaa56" id="svg_7"/>
   <path d="m3745,3407c-154,-40 -240,-152 -252,-328c-18,-252 154,-400 449,-387c79,3 103,9 158,35c36,18 77,43 93,57c24,22 27,32 27,86c0,34 -3,60 -7,58c-5,-1 -44,-21 -87,-43c-80,-40 -81,-40 -195,-40c-92,0 -123,4 -148,17c-38,21 -79,72 -88,111l-7,27l282,0l283,0l-5,84c-10,146 -79,257 -193,307c-62,28 -231,36 -310,16zm239,-140c43,-24 70,-62 81,-114l7,-33l-193,0l-192,0l6,36c8,45 46,96 89,117c50,25 153,22 202,-6z" fill="#ffaa56" id="svg_8"/>
   <path d="m5440,3405c-155,-44 -235,-149 -247,-326c-5,-61 -1,-91 16,-149c51,-166 195,-247 426,-238c87,3 108,8 165,35c36,17 77,43 93,57c23,23 27,34 27,86c0,33 -2,60 -5,60c-3,0 -29,-13 -58,-30c-30,-16 -76,-37 -103,-45c-66,-20 -197,-19 -253,3c-47,18 -96,70 -106,115l-7,27l282,0l283,0l-5,85c-10,146 -74,250 -188,303c-46,21 -72,26 -160,29c-72,2 -122,-2 -160,-12zm240,-137c46,-24 73,-60 85,-115l7,-33l-191,0c-186,0 -191,1 -191,20c0,49 57,123 110,143c40,15 137,6 180,-15z" fill="#ffaa56" id="svg_9"/>
   <path d="m1340,3055l0,-355l95,0l95,0l0,355l0,355l-95,0l-95,0l0,-355z" fill="#ffaa56" id="svg_10"/>
   <path d="m1680,3056l0,-356l95,0l95,0l0,296l0,296l113,-3c122,-4 150,-14 184,-66c16,-24 18,-58 21,-275l3,-249l92,3l92,3l3,240c3,280 -4,330 -54,385c-60,67 -94,73 -386,78l-258,3l0,-355z" fill="#ffaa56" id="svg_11"/>
   <path d="m4380,3056l0,-356l95,0l95,0l2,293l3,292l110,0c121,0 148,-9 182,-62c16,-24 18,-58 21,-275l3,-248l95,0l94,0l0,245c0,282 -7,331 -57,385c-59,67 -93,73 -385,78l-258,3l0,-355z" fill="#ffaa56" id="svg_12"/>
   <path d="m3733,2523c-3,-7 -20,-13 -39,-13c-30,0 -34,-3 -34,-25l0,-25l110,0l110,0l0,25c0,23 -4,25 -40,25c-27,0 -40,4 -40,14c0,17 -60,16 -67,-1z" fill="#ffaa56" id="svg_13"/>
   <path d="m4834,2523c-3,-10 -14,-40 -26,-68c-11,-27 -23,-65 -26,-84c-4,-33 -4,-33 27,-26c39,8 39,-1 1,-51c-53,-70 -37,-92 58,-78c49,8 57,12 60,33c3,22 2,23 -37,16c-39,-6 -56,5 -30,20c5,4 23,28 39,53c17,27 30,40 30,30c0,-11 5,-15 15,-12c13,5 15,-14 15,-135l0,-141l35,0c24,0 35,5 35,15c0,12 18,15 106,15c95,0 105,2 102,18c-2,12 -14,18 -41,20c-35,3 -37,5 -37,38c0,32 2,34 35,34c28,0 35,4 35,20c0,16 -7,20 -35,20c-32,0 -35,2 -35,29c0,26 4,30 33,33c24,2 33,8 35,26c3,19 -1,22 -31,22c-31,0 -35,3 -39,30c-4,29 -3,30 34,30c34,0 38,3 38,25c0,22 -4,25 -34,25c-28,0 -35,4 -38,23c-2,17 -11,23 -35,25c-30,3 -33,1 -33,-22c0,-19 -5,-26 -20,-26c-17,0 -20,6 -18,28c3,24 0,27 -26,27c-26,0 -31,-5 -45,-46c-9,-25 -24,-57 -34,-70c-17,-24 -17,-24 -12,-1c6,19 3,22 -23,22c-23,0 -31,-5 -36,-25c-4,-15 -14,-25 -25,-25c-15,0 -14,8 16,66c18,36 30,70 27,75c-10,16 -54,10 -60,-8zm256,-123c0,-27 -3,-30 -30,-30c-27,0 -30,3 -30,30c0,27 3,30 30,30c27,0 30,-3 30,-30zm0,-110c0,-27 -3,-30 -30,-30c-27,0 -30,3 -30,30c0,27 3,30 30,30c27,0 30,-3 30,-30zm0,-105c0,-32 -2,-35 -30,-35c-28,0 -30,3 -30,35c0,32 2,35 30,35c28,0 30,-3 30,-35z" fill="#ffaa56" id="svg_14"/>
   <path d="m5630,2525c0,-12 -17,-15 -90,-15l-90,0l0,-150c0,-109 -4,-162 -16,-195c-8,-26 -14,-56 -12,-68c3,-21 5,-20 40,13c44,43 58,90 58,193c0,75 0,77 25,77c23,0 25,-4 25,-40l0,-40l96,0c109,0 130,8 139,50c5,25 11,30 36,30c22,0 29,5 29,20c0,16 -7,20 -30,20c-20,0 -30,5 -30,15c0,10 -11,15 -35,15c-24,0 -35,-5 -35,-15c0,-11 -12,-15 -50,-15c-38,0 -50,4 -50,15c0,10 -11,15 -35,15c-24,0 -35,-5 -35,-15c0,-9 -9,-15 -25,-15c-18,0 -25,5 -25,20c0,19 7,20 175,20l175,0l0,25c0,25 -1,25 -80,25c-64,0 -80,3 -80,15c0,11 -11,15 -40,15c-29,0 -40,-4 -40,-15zm108,-162c-2,-14 -15,-19 -51,-21c-42,-3 -47,-1 -47,17c0,18 6,21 51,21c43,0 50,-3 47,-17z" fill="#ffaa56" id="svg_15"/>
   <path d="m4065,2519c-16,-4 -60,-7 -97,-8l-68,-1l0,-181c0,-113 -4,-178 -10,-174c-5,3 -12,21 -16,40c-5,28 -11,35 -30,35c-18,0 -24,-5 -24,-23c0,-24 24,-64 50,-84c8,-6 16,-16 16,-22c1,-6 2,-13 3,-16c0,-3 10,-1 22,5c37,21 59,86 59,183c0,79 2,88 18,85c15,-3 17,-19 20,-136l3,-132l29,0l30,0l0,135c0,128 1,135 20,135c13,0 20,7 20,20c0,18 -7,20 -70,20l-70,0l0,35l0,35l53,0c60,0 80,10 75,36c-2,16 -8,18 -33,13z" fill="#ffaa56" id="svg_16"/>
   <path d="m3678,2415c3,-20 0,-25 -17,-25c-16,0 -21,-6 -21,-25c0,-23 3,-25 50,-25c43,0 50,-3 50,-20c0,-17 -7,-20 -46,-20c-41,0 -45,-2 -42,-22c2,-19 10,-24 46,-26l42,-3l0,-60c0,-52 -2,-59 -20,-59c-15,0 -20,-7 -20,-25c0,-21 5,-25 28,-25c15,0 38,7 50,16c19,13 22,24 22,85l0,69l40,0c36,0 40,3 40,25c0,23 -4,25 -40,25c-33,0 -40,3 -40,20c0,17 7,20 45,20c41,0 45,2 45,25c0,18 -5,25 -19,25c-14,0 -17,6 -13,25c4,22 1,25 -26,25c-24,0 -31,-5 -34,-22c-2,-16 -11,-24 -29,-26c-21,-2 -28,2 -33,22c-5,20 -13,26 -35,26c-25,0 -28,-3 -23,-25z" fill="#ffaa56" id="svg_17"/>
   <path d="m4380,2310l0,-60l65,0l65,0l0,60l0,60l-65,0l-65,0l0,-60z" fill="#ffaa56" id="svg_18"/>
   <path d="m5530,2260c0,-19 7,-20 112,-20l112,0l-29,-30c-34,-35 -39,-36 -72,-10c-17,13 -41,20 -67,20l-41,-1l38,-35c23,-21 32,-36 25,-39c-7,-2 -32,-9 -55,-15c-32,-8 -43,-16 -43,-30c0,-25 8,-25 105,1c58,15 85,18 104,10c26,-10 123,-31 141,-31c6,0 10,9 10,19c0,15 -12,22 -52,31c-29,7 -56,14 -60,17c-4,2 13,22 38,45c28,26 44,49 44,64l0,24l-155,0c-148,0 -155,-1 -155,-20z" fill="#ffaa56" id="svg_19"/>
   <path d="m3674,2213c-3,-10 -12,-30 -20,-45c-14,-26 -19,-58 -9,-58c20,0 56,37 69,71c20,50 21,49 -9,49c-16,0 -28,-7 -31,-17z" fill="#ffaa56" id="svg_20"/>
   <path d="m4870,2173c-78,-6 -90,-11 -90,-38c0,-29 1,-29 87,-14c57,10 63,13 63,35c0,13 -3,23 -7,22c-5,-1 -28,-3 -53,-5z" fill="#ffaa56" id="svg_21"/>
  </g>
 </g>
</svg>