<?xml version="1.0" standalone="no"?>
<!DOCTYPE svg PUBLIC "-//W3C//DTD SVG 20010904//EN"
 "http://www.w3.org/TR/2001/REC-SVG-20010904/DTD/svg10.dtd">
<svg version="1.0" xmlns="http://www.w3.org/2000/svg"
 width="868.000000pt" height="600.000000pt" viewBox="0 0 868.000000 600.000000"
 preserveAspectRatio="xMidYMid meet">

<g transform="translate(0.000000,600.000000) scale(0.100000,-0.100000)"
fill="#000000" stroke="none">
<path d="M2754 4885 c-163 -81 -294 -223 -389 -420 -107 -221 -140 -400 -131
-705 3 -113 9 -221 12 -241 l6 -36 96 24 c54 12 105 23 116 23 17 0 18 5 12
48 -47 336 -47 513 0 730 l16 72 32 -19 c29 -18 529 -307 551 -319 23 -12 -13
16 -270 208 -148 111 -274 205 -278 210 -11 10 34 116 84 201 46 77 132 175
202 231 27 21 45 38 40 38 -5 0 -49 -20 -99 -45z"/>
<path d="M3306 4479 c3 -5 26 -23 52 -41 26 -17 63 -44 82 -60 19 -16 40 -32
45 -36 6 -4 30 -23 55 -42 24 -19 40 -28 35 -20 -5 8 6 0 24 -18 45 -45 147
-113 156 -104 3 4 5 2 3 -5 -1 -6 1 -11 5 -11 5 -1 18 -13 29 -27 12 -15 27
-24 35 -21 8 3 11 2 8 -3 -3 -6 3 -14 12 -20 20 -11 27 0 -82 -120 -22 -25
-31 -38 -20 -30 18 13 19 12 8 -2 -7 -9 -10 -18 -7 -22 3 -3 -2 -3 -13 -1 -12
3 -40 -12 -81 -45 -35 -28 -83 -63 -108 -77 -39 -23 -43 -28 -32 -43 11 -14
11 -14 -3 -4 -13 11 -26 7 -75 -19 -32 -18 -64 -39 -71 -47 -6 -9 -24 -17 -40
-17 -15 -1 -73 -18 -128 -38 -121 -45 -256 -81 -520 -136 -110 -23 -252 -55
-315 -71 -63 -16 -128 -32 -145 -35 -16 -3 -36 -11 -43 -16 -7 -6 -28 -12 -48
-13 -20 -1 -39 -6 -42 -11 -4 -5 -11 -9 -17 -9 -19 0 -126 -38 -131 -46 -3 -5
-12 -9 -20 -9 -61 0 -423 -226 -407 -253 3 -7 3 -9 -2 -5 -11 10 -76 -42 -68
-55 3 -5 2 -7 -4 -4 -10 6 -43 -26 -43 -43 0 -5 -9 -14 -21 -20 -11 -7 -18
-18 -15 -25 2 -7 -5 -21 -17 -32 -22 -18 -22 -18 -7 2 10 13 8 13 -5 -2 -74
-84 -150 -231 -169 -328 -27 -139 -32 -208 -15 -250 6 -16 8 -14 8 13 1 17 5
32 9 32 4 0 28 -13 53 -28 86 -54 234 -137 242 -134 4 1 7 -2 7 -6 0 -14 79
-54 92 -46 7 4 8 3 4 -4 -4 -7 9 -19 34 -32 22 -11 40 -17 40 -13 0 4 6 0 13
-9 6 -8 30 -25 52 -37 39 -22 39 -22 15 -1 -76 65 -106 83 -121 74 -7 -4 -9
-3 -6 3 8 13 -15 34 -141 128 -90 66 -106 74 -120 63 -15 -11 -15 -11 -4 3 11
15 9 20 -13 37 -15 12 -33 18 -42 15 -10 -4 -14 -2 -9 5 3 6 -11 24 -33 42
l-39 31 29 60 c24 49 27 64 19 82 -10 19 -9 20 3 5 12 -15 14 -15 28 5 8 12
16 27 19 34 12 28 151 174 213 223 45 35 66 59 62 68 -4 12 -3 13 10 2 8 -7
15 -8 15 -2 0 5 9 12 21 15 12 3 18 10 14 16 -3 6 0 9 8 5 8 -3 21 1 29 8 43
39 119 61 133 37 4 -6 14 -8 23 -4 9 3 13 3 9 -1 -4 -5 7 -15 25 -25 18 -9 88
-46 156 -82 67 -35 122 -64 122 -62 0 6 -264 210 -270 208 -4 -1 -7 5 -7 14 0
9 17 22 39 31 21 8 38 19 38 24 0 5 4 7 8 4 4 -2 65 13 136 35 70 21 132 39
138 39 6 0 20 8 31 18 11 9 17 11 12 3 -5 -10 -3 -12 11 -7 11 3 96 21 189 41
94 20 194 41 223 47 36 8 49 14 40 20 -8 6 -5 7 10 3 27 -8 313 62 324 79 4 6
8 8 8 4 0 -7 118 29 135 42 6 4 23 10 39 14 24 6 27 9 15 17 -10 8 -9 9 8 4
14 -4 46 6 92 30 39 19 71 38 71 41 0 3 -6 4 -13 1 -8 -3 -14 1 -14 8 0 11 5
11 19 4 21 -11 26 -9 145 73 70 47 223 185 223 200 0 5 15 22 33 39 17 17 25
27 17 23 -8 -4 -1 7 16 24 40 42 75 108 68 130 -4 13 -3 14 4 4 7 -10 14 -3
29 30 40 85 64 182 69 278 l5 95 -24 -70 c-13 -38 -38 -98 -54 -132 -28 -57
-31 -60 -44 -42 -13 18 -46 35 -61 31 -5 -1 -8 2 -8 8 0 15 -128 82 -141 74
-7 -4 -9 -3 -5 4 7 12 -99 76 -112 68 -5 -3 -18 1 -28 10 -18 14 -17 14 6 4
24 -11 24 -10 5 5 -11 8 -25 13 -33 10 -7 -2 -10 -1 -7 5 7 12 -32 33 -47 24
-6 -4 -9 -3 -6 2 3 5 -30 30 -73 55 -43 26 -76 43 -73 38z m309 -198 c3 -5 2
-12 -3 -15 -5 -3 -9 1 -9 9 0 17 3 19 12 6z m220 -148 c-2 -10 -4 -19 -4 -21
-1 -2 -6 0 -11 3 -8 5 -7 11 1 21 15 18 18 18 14 -3z m55 -7 c0 -3 -4 -8 -10
-11 -5 -3 -10 -1 -10 4 0 6 5 11 10 11 6 0 10 -2 10 -4z m-67 -159 c3 -7 -3
-13 -14 -13 -13 0 -15 3 -7 13 6 7 12 13 13 13 2 0 5 -6 8 -13z m-119 -96 c3
-5 -7 -16 -22 -25 l-27 -17 22 19 c12 11 19 22 16 26 -4 3 -4 6 0 6 3 0 8 -4
11 -9z m46 3 c0 -8 -19 -13 -24 -6 -3 5 1 9 9 9 8 0 15 -2 15 -3z m-105 -63
c-3 -6 -11 -11 -16 -11 -5 0 -4 6 3 14 14 16 24 13 13 -3z m-35 -25 c0 -2 -7
-7 -16 -10 -8 -3 -12 -2 -9 4 6 10 25 14 25 6z m111 -59 c-10 -9 -11 -8 -5 6
3 10 9 15 12 12 3 -3 0 -11 -7 -18z m-81 -61 c0 -2 -8 -10 -17 -17 -16 -13
-17 -12 -4 4 13 16 21 21 21 13z m-300 -50 c0 -2 -7 -7 -16 -10 -8 -3 -12 -2
-9 4 6 10 25 14 25 6z m-440 -110 c0 -2 -7 -7 -16 -10 -8 -3 -12 -2 -9 4 6 10
25 14 25 6z m-411 -95 c11 -7 9 -10 -8 -16 -13 -4 -25 -4 -28 -1 -4 3 2 6 13
6 16 0 17 2 4 10 -8 5 -10 10 -5 10 6 0 16 -4 24 -9z m-83 -33 c4 -6 3 -8 -4
-4 -6 3 -13 2 -17 -4 -3 -5 -14 -10 -23 -10 -12 1 -10 5 8 15 31 18 27 17 36
3z m-546 -162 c0 -2 -7 -7 -16 -10 -8 -3 -12 -2 -9 4 6 10 25 14 25 6z m410
-46 c0 -5 -10 -10 -22 -9 -22 0 -22 1 -3 9 11 5 21 9 23 9 1 1 2 -3 2 -9z
m-514 -17 c-3 -20 -22 -28 -31 -14 -4 7 0 8 10 5 9 -4 15 -3 14 2 -2 13 0 24
5 24 2 0 3 -8 2 -17z m-245 -180 c13 -16 12 -17 -3 -4 -10 7 -18 15 -18 17 0
8 8 3 21 -13z m376 -65 c-3 -8 -6 -5 -6 6 -1 11 2 17 5 13 3 -3 4 -12 1 -19z
m88 -46 c-3 -3 -11 0 -18 7 -9 10 -8 11 6 5 10 -3 15 -9 12 -12z m30 -12 c3
-5 -1 -10 -10 -10 -9 0 -13 5 -10 10 3 6 8 10 10 10 2 0 7 -4 10 -10z m-737
-175 c-3 -3 -9 2 -12 12 -6 14 -5 15 5 6 7 -7 10 -15 7 -18z m-67 -382 c13
-17 13 -17 -6 -3 -11 8 -22 16 -24 17 -2 2 0 3 6 3 6 0 17 -8 24 -17z m172
-70 c3 -5 -8 -8 -25 -9 -20 -1 -25 2 -16 7 16 11 35 11 41 2z m-9 -21 c3 -5
-1 -9 -9 -9 -8 0 -12 4 -9 9 3 4 7 8 9 8 2 0 6 -4 9 -8z"/>
<path d="M3340 3660 c-9 -6 -10 -10 -3 -10 6 0 15 5 18 10 8 12 4 12 -15 0z"/>
<path d="M2912 3073 l3 -88 93 -3 92 -3 0 91 0 90 -95 0 -96 0 3 -87z"/>
<path d="M4420 3141 c-102 -34 -151 -60 -203 -110 -65 -61 -96 -121 -110 -212
-25 -162 47 -315 178 -379 l48 -23 -25 -21 c-14 -12 -53 -38 -88 -59 l-62 -39
5 -40 c6 -47 50 -99 110 -129 20 -11 37 -21 37 -23 0 -2 -42 -35 -92 -74 -130
-99 -147 -119 -154 -179 -12 -99 41 -212 128 -270 129 -88 330 -102 498 -36
187 74 321 215 350 368 26 139 -24 243 -143 295 -45 20 -141 35 -374 58 -107
11 -143 29 -143 70 0 50 24 66 115 77 156 19 297 110 358 230 35 70 44 197 21
289 -5 22 -3 24 55 28 41 3 67 10 82 24 22 19 69 109 69 132 0 24 -29 24 -62
0 -49 -35 -162 -32 -283 6 -116 37 -235 44 -315 17z m124 -83 c114 -34 184
-199 156 -366 -22 -131 -82 -188 -190 -180 -101 7 -169 70 -204 188 -20 68
-21 183 -1 242 16 47 65 104 100 119 30 12 93 11 139 -3z m63 -983 c182 -13
273 -83 273 -207 -1 -96 -49 -166 -145 -210 -44 -20 -65 -23 -170 -22 -100 0
-128 3 -167 21 -195 89 -213 285 -35 398 36 23 82 33 132 29 22 -2 73 -6 112
-9z"/>
<path d="M2438 3067 c-53 -12 -99 -25 -103 -28 -3 -4 4 -58 15 -120 34 -189
50 -346 50 -490 0 -128 -15 -290 -29 -316 -4 -7 -59 20 -161 81 -203 121 -548
326 -580 343 l-25 15 25 -19 c122 -91 318 -234 548 -402 l170 -124 -25 -71
c-73 -205 -180 -351 -343 -469 l-25 -18 30 6 c17 3 68 25 115 48 70 34 102 59
186 142 107 106 165 193 225 335 118 282 138 564 73 1003 -19 123 -5 115 -146
84z"/>
<path d="M5315 2877 c-154 -40 -240 -152 -252 -328 -18 -252 154 -400 449
-387 79 3 103 9 158 35 36 18 77 43 93 57 24 22 27 32 27 86 0 34 -3 60 -7 58
-5 -1 -44 -21 -87 -43 -80 -40 -81 -40 -195 -40 -92 0 -123 4 -148 17 -38 21
-79 72 -88 111 l-7 27 282 0 283 0 -5 84 c-10 146 -79 257 -193 307 -62 28
-231 36 -310 16z m239 -140 c43 -24 70 -62 81 -114 l7 -33 -193 0 -192 0 6 36
c8 45 46 96 89 117 50 25 153 22 202 -6z"/>
<path d="M7010 2875 c-155 -44 -235 -149 -247 -326 -5 -61 -1 -91 16 -149 51
-166 195 -247 426 -238 87 3 108 8 165 35 36 17 77 43 93 57 23 23 27 34 27
86 0 33 -2 60 -5 60 -3 0 -29 -13 -58 -30 -30 -16 -76 -37 -103 -45 -66 -20
-197 -19 -253 3 -47 18 -96 70 -106 115 l-7 27 282 0 283 0 -5 85 c-10 146
-74 250 -188 303 -46 21 -72 26 -160 29 -72 2 -122 -2 -160 -12z m240 -137
c46 -24 73 -60 85 -115 l7 -33 -191 0 c-186 0 -191 1 -191 20 0 49 57 123 110
143 40 15 137 6 180 -15z"/>
<path d="M2910 2525 l0 -355 95 0 95 0 0 355 0 355 -95 0 -95 0 0 -355z"/>
<path d="M3250 2526 l0 -356 95 0 95 0 0 296 0 296 113 -3 c122 -4 150 -14
184 -66 16 -24 18 -58 21 -275 l3 -249 92 3 92 3 3 240 c3 280 -4 330 -54 385
-60 67 -94 73 -386 78 l-258 3 0 -355z"/>
<path d="M5950 2526 l0 -356 95 0 95 0 2 293 3 292 110 0 c121 0 148 -9 182
-62 16 -24 18 -58 21 -275 l3 -248 95 0 94 0 0 245 c0 282 -7 331 -57 385 -59
67 -93 73 -385 78 l-258 3 0 -355z"/>
<path d="M5303 1993 c-3 -7 -20 -13 -39 -13 -30 0 -34 -3 -34 -25 l0 -25 110
0 110 0 0 25 c0 23 -4 25 -40 25 -27 0 -40 4 -40 14 0 17 -60 16 -67 -1z"/>
<path d="M6404 1993 c-3 -10 -14 -40 -26 -68 -11 -27 -23 -65 -26 -84 -4 -33
-4 -33 27 -26 39 8 39 -1 1 -51 -53 -70 -37 -92 58 -78 49 8 57 12 60 33 3 22
2 23 -37 16 -39 -6 -56 5 -30 20 5 4 23 28 39 53 17 27 30 40 30 30 0 -11 5
-15 15 -12 13 5 15 -14 15 -135 l0 -141 35 0 c24 0 35 5 35 15 0 12 18 15 106
15 95 0 105 2 102 18 -2 12 -14 18 -41 20 -35 3 -37 5 -37 38 0 32 2 34 35 34
28 0 35 4 35 20 0 16 -7 20 -35 20 -32 0 -35 2 -35 29 0 26 4 30 33 33 24 2
33 8 35 26 3 19 -1 22 -31 22 -31 0 -35 3 -39 30 -4 29 -3 30 34 30 34 0 38 3
38 25 0 22 -4 25 -34 25 -28 0 -35 4 -38 23 -2 17 -11 23 -35 25 -30 3 -33 1
-33 -22 0 -19 -5 -26 -20 -26 -17 0 -20 6 -18 28 3 24 0 27 -26 27 -26 0 -31
-5 -45 -46 -9 -25 -24 -57 -34 -70 -17 -24 -17 -24 -12 -1 6 19 3 22 -23 22
-23 0 -31 -5 -36 -25 -4 -15 -14 -25 -25 -25 -15 0 -14 8 16 66 18 36 30 70
27 75 -10 16 -54 10 -60 -8z m256 -123 c0 -27 -3 -30 -30 -30 -27 0 -30 3 -30
30 0 27 3 30 30 30 27 0 30 -3 30 -30z m0 -110 c0 -27 -3 -30 -30 -30 -27 0
-30 3 -30 30 0 27 3 30 30 30 27 0 30 -3 30 -30z m0 -105 c0 -32 -2 -35 -30
-35 -28 0 -30 3 -30 35 0 32 2 35 30 35 28 0 30 -3 30 -35z"/>
<path d="M7200 1995 c0 -12 -17 -15 -90 -15 l-90 0 0 -150 c0 -109 -4 -162
-16 -195 -8 -26 -14 -56 -12 -68 3 -21 5 -20 40 13 44 43 58 90 58 193 0 75 0
77 25 77 23 0 25 -4 25 -40 l0 -40 96 0 c109 0 130 8 139 50 5 25 11 30 36 30
22 0 29 5 29 20 0 16 -7 20 -30 20 -20 0 -30 5 -30 15 0 10 -11 15 -35 15 -24
0 -35 -5 -35 -15 0 -11 -12 -15 -50 -15 -38 0 -50 4 -50 15 0 10 -11 15 -35
15 -24 0 -35 -5 -35 -15 0 -9 -9 -15 -25 -15 -18 0 -25 5 -25 20 0 19 7 20
175 20 l175 0 0 25 c0 25 -1 25 -80 25 -64 0 -80 3 -80 15 0 11 -11 15 -40 15
-29 0 -40 -4 -40 -15z m108 -162 c-2 -14 -15 -19 -51 -21 -42 -3 -47 -1 -47
17 0 18 6 21 51 21 43 0 50 -3 47 -17z"/>
<path d="M5635 1989 c-16 -4 -60 -7 -97 -8 l-68 -1 0 -181 c0 -113 -4 -178
-10 -174 -5 3 -12 21 -16 40 -5 28 -11 35 -30 35 -18 0 -24 -5 -24 -23 0 -24
24 -64 50 -84 8 -6 16 -16 16 -22 1 -6 2 -13 3 -16 0 -3 10 -1 22 5 37 21 59
86 59 183 0 79 2 88 18 85 15 -3 17 -19 20 -136 l3 -132 29 0 30 0 0 135 c0
128 1 135 20 135 13 0 20 7 20 20 0 18 -7 20 -70 20 l-70 0 0 35 0 35 53 0
c60 0 80 10 75 36 -2 16 -8 18 -33 13z"/>
<path d="M5248 1885 c3 -20 0 -25 -17 -25 -16 0 -21 -6 -21 -25 0 -23 3 -25
50 -25 43 0 50 -3 50 -20 0 -17 -7 -20 -46 -20 -41 0 -45 -2 -42 -22 2 -19 10
-24 46 -26 l42 -3 0 -60 c0 -52 -2 -59 -20 -59 -15 0 -20 -7 -20 -25 0 -21 5
-25 28 -25 15 0 38 7 50 16 19 13 22 24 22 85 l0 69 40 0 c36 0 40 3 40 25 0
23 -4 25 -40 25 -33 0 -40 3 -40 20 0 17 7 20 45 20 41 0 45 2 45 25 0 18 -5
25 -19 25 -14 0 -17 6 -13 25 4 22 1 25 -26 25 -24 0 -31 -5 -34 -22 -2 -16
-11 -24 -29 -26 -21 -2 -28 2 -33 22 -5 20 -13 26 -35 26 -25 0 -28 -3 -23
-25z"/>
<path d="M5950 1780 l0 -60 65 0 65 0 0 60 0 60 -65 0 -65 0 0 -60z"/>
<path d="M7100 1730 c0 -19 7 -20 112 -20 l112 0 -29 -30 c-34 -35 -39 -36
-72 -10 -17 13 -41 20 -67 20 l-41 -1 38 -35 c23 -21 32 -36 25 -39 -7 -2 -32
-9 -55 -15 -32 -8 -43 -16 -43 -30 0 -25 8 -25 105 1 58 15 85 18 104 10 26
-10 123 -31 141 -31 6 0 10 9 10 19 0 15 -12 22 -52 31 -29 7 -56 14 -60 17
-4 2 13 22 38 45 28 26 44 49 44 64 l0 24 -155 0 c-148 0 -155 -1 -155 -20z"/>
<path d="M5244 1683 c-3 -10 -12 -30 -20 -45 -14 -26 -19 -58 -9 -58 20 0 56
37 69 71 20 50 21 49 -9 49 -16 0 -28 -7 -31 -17z"/>
<path d="M6440 1643 c-78 -6 -90 -11 -90 -38 0 -29 1 -29 87 -14 57 10 63 13
63 35 0 13 -3 23 -7 22 -5 -1 -28 -3 -53 -5z"/>
</g>
</svg>
